<svg xmlns="http://www.w3.org/2000/svg" version="1.1" xmlns:xlink="http://www.w3.org/1999/xlink" xmlns:svgjs="http://svgjs.dev/svgjs" viewBox="0 0 1920 1080"><rect width="1920" height="1080" fill="#464335"></rect><g transform="matrix(0.8131727983645296,0.8131727983645295,-0.8131727983645295,0.8131727983645296,608.137132773945,-634.796192645782)"><path d="M0,-1080C15.462688133953558,-1003.378862853509,95.01346859960667,-768.7567489049859,92.77612880372135,-620.2731771210539C90.53878900783603,-471.7896053371219,20.119639475180882,-296.3667846940667,-13.424038775311942,-189.09856929640773C-46.96771702580477,-81.83035389874874,-124.2744321404139,-77.36989709181707,-108.48594069923558,23.336115264900116C-92.69744925805728,124.0421276216173,70.44327852569572,248.074192552788,81.30690987175791,415.13750484389533C92.1705412178201,582.2008171350027,-17.41461930959169,890.553022960342,-43.30415262286243,1025.7159890115443C-69.19368593613318,1160.8789550627464,-89.16626154468493,1108.8255455132717,-74.03029000786654,1226.1153011511087C-58.89431847104816,1343.4050567889458,35.173294930070114,1573.8070730304185,47.51167659804787,1729.454522838567C59.85005826602563,1885.1019726467157,7.918612766341312,2088.2424204730946,0,2160L 1920 2160 L 1920 -1080 Z" fill="url(&quot;#SvgjsLinearGradient1094&quot;)"></path><path d="M960,-1080C966.8342667077784,-1033.7284984968592,1007.6448929330552,-941.5205665410906,1001.0056002466702,-802.3709909811545C994.3663075602851,-663.2214154212184,930.7563146308984,-384.01272091957566,920.1642438816898,-245.10254664038342C909.5721731324812,-106.19237236119119,947.7254918425898,-108.38689914805332,937.4531757514186,31.090054693998923C927.1808596602474,170.56700853605116,869.1796503127657,433.2259817607311,858.5303473346628,591.75917641193C847.8810443565599,750.2923710631288,850.7121747592649,870.0205789790231,873.5573578828012,982.2892226011921C896.4025410063374,1094.557866223361,968.9123909376963,1141.2467030173789,995.6014460758804,1265.3710381449441C1022.2905012140645,1389.4953732725094,1039.6252630578858,1577.9304063907416,1033.6916887119057,1727.0352333665842C1027.7581143659256,1876.1400603424268,972.2819481186509,2087.8392055610975,960,2160L 1920 2160 L 1920 -1080 Z" fill="url(&quot;#SvgjsLinearGradient1095&quot;)"></path></g><defs><linearGradient x1="0.1" y1="0" x2="0" y2="1" id="SvgjsLinearGradient1094"><stop stop-color="#464335" offset="0"></stop><stop stop-color="#464035" offset="0"></stop></linearGradient><linearGradient x1="0.1" y1="0" x2="0" y2="1" id="SvgjsLinearGradient1095"><stop stop-color="#aaa58e" offset="0"></stop><stop stop-color="#aaa08e" offset="0.5"></stop></linearGradient></defs></svg>